<?xml version="1.0" encoding="utf-8"?>
<!-- Generator: Adobe Illustrator 22.0.1, SVG Export Plug-In . SVG Version: 6.00 Build 0)  -->
<svg version="1.1" id="Capa_1" xmlns="http://www.w3.org/2000/svg" xmlns:xlink="http://www.w3.org/1999/xlink" x="0px" y="0px"
	 viewBox="0 0 1000 1000" style="enable-background:new 0 0 1000 1000;" xml:space="preserve">
<style type="text/css">
	.st0{fill:#307FE2;}
</style>
<g>
	<path class="st0" d="M164.7,568.4l91.7-196.6h23.3l92.5,196.6h-51.6l-12.1-25.7h-80.5l-11.8,25.7H164.7z M248.3,499.2h40.1
		l-19.9-43.2L248.3,499.2z"/>
	<path class="st0" d="M397.2,371.8h51.6v144.7h70.8v51.9H397.2V371.8z"/>
</g>
<g>
	<path class="st0" d="M175.4,608.1h3l9.5,25.2h-4.5l-6.5-18.8l-6.5,18.8H166L175.4,608.1z M170.4,624.6h13.3v4h-13.3V624.6z"/>
	<path class="st0" d="M195.4,633.3h-4.2v-25.2h4.2V633.3z"/>
	<path class="st0" d="M201.2,608.1h4.1v25.2h-4.1V608.1z M202.9,619h8.7c0.6,0,1.1-0.1,1.5-0.4c0.4-0.3,0.8-0.7,1-1.2
		s0.4-1.1,0.4-1.8c0-0.7-0.1-1.3-0.4-1.8c-0.2-0.5-0.6-0.9-1-1.2c-0.4-0.3-1-0.4-1.6-0.4h-8.7v-4h8.8c1.4,0,2.7,0.3,3.7,0.9
		c1.1,0.6,1.9,1.5,2.5,2.6c0.6,1.1,0.9,2.4,0.9,3.9c0,1.5-0.3,2.8-0.9,3.9c-0.6,1.1-1.4,2-2.5,2.6c-1.1,0.6-2.3,0.9-3.7,0.9h-8.8
		V619z M209,622.2l4.3-0.8l6.6,12h-5L209,622.2z"/>
	<path class="st0" d="M224.3,608.1h4.1v25.2h-4.1V608.1z M226,608.1h14.8v4H226V608.1z M226,618.8h12.9v4H226V618.8z M226,629.4
		h14.8v4H226V629.4z"/>
	<path class="st0" d="M258.6,608.1h3l9.5,25.2h-4.5l-6.5-18.8l-6.5,18.8h-4.5L258.6,608.1z M253.6,624.6h13.3v4h-13.3V624.6z"/>
	<path class="st0" d="M279.7,633.6c0,0-0.7-0.4-2-1.1c-1.3-0.8-2.4-1.8-3.1-3.3c-0.7-1.4-1.1-3.1-1.1-5v-6.9c0-1.9,0.4-3.6,1.1-5
		c0.7-1.4,1.8-2.5,3.1-3.3s2.9-1.1,4.8-1.1c1.5,0,2.9,0.3,4.1,1c1.2,0.6,2.3,1.6,3.1,2.8s1.4,2.7,1.7,4.3h-4.3
		c-0.2-0.8-0.5-1.5-1-2.1c-0.5-0.6-1-1.1-1.6-1.4c-0.6-0.3-1.3-0.5-2-0.5c-1,0-1.8,0.2-2.5,0.7c-0.7,0.4-1.2,1-1.6,1.8
		c-0.4,0.8-0.6,1.7-0.6,2.8v6.9c0,1.1,0.2,2,0.6,2.8c0.4,0.8,0.9,1.4,1.6,1.8c0.7,0.4,1.5,0.6,2.5,0.6c0.7,0,1.4-0.2,2-0.5
		s1.2-0.8,1.6-1.4c0.5-0.6,0.8-1.3,1-2.2h4.3c-0.3,1.7-0.9,3.1-1.7,4.3s-1.8,2.2-3.1,2.8s-2.6,1-4.1,1
		C280.7,633.6,279.7,633.6,279.7,633.6z"/>
	<path class="st0" d="M299.8,632.5c-1.4-0.8-2.4-1.9-3.2-3.3s-1.1-3-1.1-4.9v-7.1c0-1.8,0.4-3.5,1.1-4.9c0.8-1.4,1.8-2.5,3.2-3.3
		s2.9-1.2,4.7-1.2c1.8,0,3.4,0.4,4.7,1.2c1.4,0.8,2.4,1.9,3.2,3.3c0.8,1.4,1.1,3,1.1,4.9v7.1c0,1.8-0.4,3.5-1.1,4.9
		c-0.8,1.4-1.8,2.5-3.2,3.3c-1.4,0.8-2.9,1.2-4.7,1.2C302.7,633.6,301.2,633.2,299.8,632.5z M307,628.9c0.7-0.4,1.3-1,1.7-1.8
		s0.6-1.7,0.6-2.7V617c0-1-0.2-1.9-0.6-2.7s-1-1.4-1.7-1.8c-0.7-0.4-1.6-0.6-2.5-0.6s-1.8,0.2-2.5,0.6c-0.7,0.4-1.3,1-1.7,1.8
		s-0.6,1.7-0.6,2.7v7.4c0,1,0.2,1.9,0.6,2.7s1,1.4,1.7,1.8c0.7,0.4,1.6,0.6,2.5,0.6S306.3,629.3,307,628.9z"/>
	<path class="st0" d="M318.9,608.1h4.5l10.9,19.4l-0.4,0.5v-19.9h4v25.2h-4.5l-10.8-19.1l0.4-0.5v19.6h-4V608.1z"/>
	<path class="st0" d="M343.8,608.1h4.1v25.2h-4.1V608.1z M346.2,629.4h5.9c1.7,0,3-0.4,4-1.3c0.9-0.9,1.4-2.1,1.4-3.6V617
		c0-1.6-0.5-2.8-1.4-3.6c-0.9-0.9-2.3-1.3-4-1.3h-5.9v-4h5.8c2.1,0,3.8,0.4,5.3,1.1c1.5,0.7,2.6,1.7,3.3,3.1c0.8,1.4,1.1,3,1.1,4.9
		v7.1c0,1.9-0.4,3.5-1.1,4.8c-0.8,1.4-1.9,2.4-3.3,3.1c-1.5,0.7-3.2,1.1-5.3,1.1h-5.8V629.4z"/>
	<path class="st0" d="M371.2,633.3h-4.2v-25.2h4.2V633.3z"/>
	<path class="st0" d="M382.6,633.6c0,0-0.7-0.4-2-1.1c-1.3-0.8-2.4-1.8-3.1-3.3c-0.7-1.4-1.1-3.1-1.1-5v-6.9c0-1.9,0.4-3.6,1.1-5
		c0.7-1.4,1.8-2.5,3.1-3.3s2.9-1.1,4.8-1.1c1.5,0,2.9,0.3,4.1,1c1.2,0.6,2.3,1.6,3.1,2.8s1.4,2.7,1.7,4.3h-4.3
		c-0.2-0.8-0.5-1.5-1-2.1c-0.5-0.6-1-1.1-1.6-1.4c-0.6-0.3-1.3-0.5-2-0.5c-1,0-1.8,0.2-2.5,0.7c-0.7,0.4-1.2,1-1.6,1.8
		c-0.4,0.8-0.6,1.7-0.6,2.8v6.9c0,1.1,0.2,2,0.6,2.8c0.4,0.8,0.9,1.4,1.6,1.8c0.7,0.4,1.5,0.6,2.5,0.6c0.7,0,1.4-0.2,2-0.5
		s1.2-0.8,1.6-1.4c0.5-0.6,0.8-1.3,1-2.2h4.3c-0.3,1.7-0.9,3.1-1.7,4.3s-1.8,2.2-3.1,2.8s-2.6,1-4.1,1
		C383.5,633.6,382.6,633.6,382.6,633.6z"/>
	<path class="st0" d="M402.9,633.3h-4.2v-25.2h4.2V633.3z"/>
	<path class="st0" d="M412.4,632.5c-1.4-0.8-2.4-1.9-3.2-3.3s-1.1-3-1.1-4.9v-7.1c0-1.8,0.4-3.5,1.1-4.9c0.8-1.4,1.8-2.5,3.2-3.3
		s2.9-1.2,4.7-1.2c1.8,0,3.4,0.4,4.7,1.2c1.4,0.8,2.4,1.9,3.2,3.3c0.8,1.4,1.1,3,1.1,4.9v7.1c0,1.8-0.4,3.5-1.1,4.9
		c-0.8,1.4-1.8,2.5-3.2,3.3c-1.4,0.8-2.9,1.2-4.7,1.2C415.4,633.6,413.8,633.2,412.4,632.5z M419.7,628.9c0.7-0.4,1.3-1,1.7-1.8
		s0.6-1.7,0.6-2.7V617c0-1-0.2-1.9-0.6-2.7s-1-1.4-1.7-1.8c-0.7-0.4-1.6-0.6-2.5-0.6s-1.8,0.2-2.5,0.6c-0.7,0.4-1.3,1-1.7,1.8
		s-0.6,1.7-0.6,2.7v7.4c0,1,0.2,1.9,0.6,2.7s1,1.4,1.7,1.8c0.7,0.4,1.6,0.6,2.5,0.6S418.9,629.3,419.7,628.9z"/>
	<path class="st0" d="M431.6,608.1h4.5l10.9,19.4l-0.4,0.5v-19.9h4v25.2H446l-10.8-19.1l0.4-0.5v19.6h-4V608.1z"/>
	<path class="st0" d="M463.5,608.1h3l9.5,25.2h-4.5l-6.5-18.8l-6.5,18.8H454L463.5,608.1z M458.4,624.6h13.3v4h-13.3V624.6z"/>
	<path class="st0" d="M479.4,608.1h4.1v25.2h-4.1V608.1z M481.8,629.4h5.9c1.7,0,3-0.4,4-1.3c0.9-0.9,1.4-2.1,1.4-3.6V617
		c0-1.6-0.5-2.8-1.4-3.6c-0.9-0.9-2.3-1.3-4-1.3h-5.9v-4h5.8c2.1,0,3.8,0.4,5.3,1.1c1.5,0.7,2.6,1.7,3.3,3.1c0.8,1.4,1.1,3,1.1,4.9
		v7.1c0,1.9-0.4,3.5-1.1,4.8c-0.8,1.4-1.9,2.4-3.3,3.1c-1.5,0.7-3.2,1.1-5.3,1.1h-5.8V629.4z"/>
	<path class="st0" d="M506.5,632.5c-1.4-0.8-2.4-1.9-3.2-3.3c-0.8-1.4-1.1-3-1.1-4.9v-7.1c0-1.8,0.4-3.5,1.1-4.9
		c0.8-1.4,1.8-2.5,3.2-3.3c1.4-0.8,2.9-1.2,4.7-1.2c1.8,0,3.4,0.4,4.7,1.2c1.4,0.8,2.4,1.9,3.2,3.3c0.8,1.4,1.1,3,1.1,4.9v7.1
		c0,1.8-0.4,3.5-1.1,4.9c-0.8,1.4-1.8,2.5-3.2,3.3c-1.4,0.8-2.9,1.2-4.7,1.2C509.4,633.6,507.9,633.2,506.5,632.5z M513.7,628.9
		c0.7-0.4,1.3-1,1.7-1.8s0.6-1.7,0.6-2.7V617c0-1-0.2-1.9-0.6-2.7s-1-1.4-1.7-1.8s-1.6-0.6-2.5-0.6c-0.9,0-1.8,0.2-2.5,0.6
		s-1.3,1-1.7,1.8c-0.4,0.8-0.6,1.7-0.6,2.7v7.4c0,1,0.2,1.9,0.6,2.7c0.4,0.8,1,1.4,1.7,1.8c0.7,0.4,1.6,0.6,2.5,0.6
		C512.2,629.5,513,629.3,513.7,628.9z"/>
	<path class="st0" d="M168.4,650.7h4.1V676h-4.1V650.7z M170.1,650.7h14.8v4h-14.8V650.7z M170.1,661.5H183v4h-12.9V661.5z
		 M170.1,672h14.8v4h-14.8V672z"/>
	<path class="st0" d="M189.6,650.7h4.1V676h-4.1V650.7z M191.5,672h14.6v4h-14.6V672z"/>
	<path class="st0" d="M210,650.7h4.1V676H210V650.7z M211.7,650.7h14.8v4h-14.8V650.7z M211.7,661.5h12.9v4h-12.9V661.5z M211.7,672
		h14.8v4h-14.8V672z"/>
	<path class="st0" d="M236.9,676.2c0,0-0.7-0.4-2-1.1c-1.3-0.8-2.4-1.8-3.1-3.3c-0.7-1.4-1.1-3.1-1.1-5v-6.9c0-1.9,0.4-3.6,1.1-5
		c0.7-1.4,1.8-2.5,3.1-3.3s2.9-1.1,4.8-1.1c1.5,0,2.9,0.3,4.1,1c1.2,0.6,2.3,1.6,3.1,2.8s1.4,2.7,1.7,4.3h-4.3
		c-0.2-0.8-0.5-1.5-1-2.1c-0.5-0.6-1-1.1-1.6-1.4c-0.6-0.3-1.3-0.5-2-0.5c-1,0-1.8,0.2-2.5,0.7c-0.7,0.4-1.2,1-1.6,1.8
		c-0.4,0.8-0.6,1.7-0.6,2.8v6.9c0,1.1,0.2,2,0.6,2.8c0.4,0.8,0.9,1.4,1.6,1.8c0.7,0.4,1.5,0.6,2.5,0.6c0.7,0,1.4-0.2,2-0.5
		s1.2-0.8,1.6-1.4c0.5-0.6,0.8-1.3,1-2.2h4.3c-0.3,1.7-0.9,3.1-1.7,4.3s-1.8,2.2-3.1,2.8s-2.6,1-4.1,1
		C237.8,676.2,236.9,676.2,236.9,676.2z"/>
	<path class="st0" d="M249.7,650.7h18.1v4h-18.1V650.7z M256.7,652.8h4.1V676h-4.1V652.8z"/>
	<path class="st0" d="M270.2,650.7h4.1V676h-4.1V650.7z M272,661.6h8.7c0.6,0,1.1-0.1,1.5-0.4c0.4-0.3,0.8-0.7,1-1.2
		s0.4-1.1,0.4-1.8c0-0.7-0.1-1.3-0.4-1.8c-0.2-0.5-0.6-0.9-1-1.2c-0.4-0.3-1-0.4-1.6-0.4H272v-4h8.8c1.4,0,2.7,0.3,3.7,0.9
		c1.1,0.6,1.9,1.5,2.5,2.6c0.6,1.1,0.9,2.4,0.9,3.9c0,1.5-0.3,2.8-0.9,3.9c-0.6,1.1-1.4,2-2.5,2.6c-1.1,0.6-2.3,0.9-3.7,0.9H272
		V661.6z M278,664.8l4.3-0.8l6.6,12h-5L278,664.8z"/>
	<path class="st0" d="M297.4,676h-4.2v-25.2h4.2V676z"/>
	<path class="st0" d="M308.9,676.2c0,0-0.7-0.4-2-1.1c-1.3-0.8-2.4-1.8-3.1-3.3c-0.7-1.4-1.1-3.1-1.1-5v-6.9c0-1.9,0.4-3.6,1.1-5
		c0.7-1.4,1.8-2.5,3.1-3.3s2.9-1.1,4.8-1.1c1.5,0,2.9,0.3,4.1,1c1.2,0.6,2.3,1.6,3.1,2.8s1.4,2.7,1.7,4.3h-4.3
		c-0.2-0.8-0.5-1.5-1-2.1c-0.5-0.6-1-1.1-1.6-1.4c-0.6-0.3-1.3-0.5-2-0.5c-1,0-1.8,0.2-2.5,0.7c-0.7,0.4-1.2,1-1.6,1.8
		c-0.4,0.8-0.6,1.7-0.6,2.8v6.9c0,1.1,0.2,2,0.6,2.8c0.4,0.8,0.9,1.4,1.6,1.8c0.7,0.4,1.5,0.6,2.5,0.6c0.7,0,1.4-0.2,2-0.5
		s1.2-0.8,1.6-1.4c0.5-0.6,0.8-1.3,1-2.2h4.3c-0.3,1.7-0.9,3.1-1.7,4.3s-1.8,2.2-3.1,2.8s-2.6,1-4.1,1
		C309.8,676.2,308.9,676.2,308.9,676.2z"/>
	<path class="st0" d="M329.2,676H325v-25.2h4.2V676z"/>
	<path class="st0" d="M334.9,650.7h4.1V676h-4.1V650.7z M337.3,672h5.9c1.7,0,3-0.4,4-1.3c0.9-0.9,1.4-2.1,1.4-3.6v-7.4
		c0-1.6-0.5-2.8-1.4-3.6c-0.9-0.9-2.3-1.3-4-1.3h-5.9v-4h5.8c2.1,0,3.8,0.4,5.3,1.1c1.5,0.7,2.6,1.7,3.3,3.1c0.8,1.4,1.1,3,1.1,4.9
		v7.1c0,1.9-0.4,3.5-1.1,4.8c-0.8,1.4-1.9,2.4-3.3,3.1c-1.5,0.7-3.2,1.1-5.3,1.1h-5.8V672z"/>
	<path class="st0" d="M364.7,650.7h3l9.5,25.2h-4.5l-6.5-18.8l-6.5,18.8h-4.5L364.7,650.7z M359.7,667.2H373v4h-13.3V667.2z"/>
	<path class="st0" d="M380.7,650.7h4.1V676h-4.1V650.7z M383.1,672h5.9c1.7,0,3-0.4,4-1.3c0.9-0.9,1.4-2.1,1.4-3.6v-7.4
		c0-1.6-0.5-2.8-1.4-3.6c-0.9-0.9-2.3-1.3-4-1.3h-5.9v-4h5.8c2.1,0,3.8,0.4,5.3,1.1c1.5,0.7,2.6,1.7,3.3,3.1c0.8,1.4,1.1,3,1.1,4.9
		v7.1c0,1.9-0.4,3.5-1.1,4.8c-0.8,1.4-1.9,2.4-3.3,3.1c-1.5,0.7-3.2,1.1-5.3,1.1h-5.8V672z"/>
</g>
<path class="st0" d="M835.1,460.1h-9.4H824h-75l-58.8-88.3h62.9l34.4,57.9l25-42.4c-26.8-43.2-74.6-71.9-129.1-71.9
	c-47.6,0-90.1,21.9-118,56.2h84v0.1v42.8v8.9h-70.6v20.9h70.6v51.7h-70.6v20.5h70.6v9.8v41.9v0.4H570
	c27.8,31.1,68.3,50.8,113.3,50.8c54.8,0,102.8-29,129.5-72.5l-25.3-36l-40.9,57.7h-63l64.6-88h74.6h3.8h8.1
	c0.4-4.4,0.6-8.8,0.6-13.3C835.3,464.8,835.2,462.4,835.1,460.1z"/>
</svg>
